<svg width="203" height="203" viewBox="0 0 203 203" fill="none" xmlns="http://www.w3.org/2000/svg">
<g clip-path="url(#clip0_1_4)">
<rect width="203" height="203" fill="white"/>
<circle cx="101" cy="99" r="90" transform="rotate(-90 101 99)" fill="url(#paint0_linear_1_4)"/>
<ellipse cx="100.25" cy="99.75" rx="77.25" ry="77.25" transform="rotate(-90 100.25 99.75)" fill="#FEFBFB"/>
<circle cx="101" cy="99" r="71" transform="rotate(-90 101 99)" fill="url(#paint1_linear_1_4)"/>
<circle cx="100.408" cy="99.5917" r="60.9417" transform="rotate(-90 100.408 99.5917)" fill="#FEFBFB"/>
<circle cx="203" cy="99" r="71" fill="white"/>
<g filter="url(#filter0_d_1_4)">
<path d="M134.264 113.08C134.264 113.901 134.152 114.573 133.928 115.096C133.704 115.581 133.405 115.973 133.032 116.272C132.659 116.533 132.229 116.72 131.744 116.832C131.296 116.944 130.829 117 130.344 117H112.816C112.405 117 111.995 116.963 111.584 116.888C111.173 116.776 110.8 116.608 110.464 116.384C110.165 116.123 109.923 115.787 109.736 115.376C109.549 114.928 109.456 114.349 109.456 113.64V100.256H92.432C91.9093 102.197 91.5173 104.269 91.256 106.472C90.9947 108.675 90.864 111.064 90.864 113.64C90.864 115.059 90.5467 115.973 89.912 116.384C89.3147 116.795 88.6053 117 87.784 117H85.824V113.64C85.824 108.787 86.2347 104.512 87.056 100.816C87.9147 97.0827 89.0533 93.8533 90.472 91.128C91.928 88.3653 93.608 86.0693 95.512 84.24C97.416 82.4107 99.432 80.936 101.56 79.816C103.688 78.696 105.853 77.8933 108.056 77.408C110.296 76.9227 112.443 76.68 114.496 76.68C115.765 76.68 116.587 76.9973 116.96 77.632C117.333 78.2667 117.52 78.9573 117.52 79.704V81.16H114.496V113.08H134.264ZM109.456 81.72C106.171 82.4667 103.165 84.016 100.44 86.368C97.7147 88.6827 95.512 91.912 93.832 96.056H109.456V81.72ZM161.217 104.736C161.217 106.304 160.918 107.835 160.321 109.328C159.723 110.821 158.585 112.072 156.905 113.08H174.209C174.209 113.901 174.097 114.573 173.873 115.096C173.649 115.581 173.35 115.973 172.977 116.272C172.603 116.533 172.174 116.72 171.689 116.832C171.241 116.944 170.774 117 170.289 117H132.041C131.63 117 131.219 116.963 130.809 116.888C130.398 116.776 130.025 116.608 129.689 116.384C129.39 116.123 129.147 115.787 128.961 115.376C128.774 114.928 128.681 114.349 128.681 113.64V113.08H147.105C148.822 113.08 150.259 112.819 151.417 112.296C152.574 111.736 153.507 111.045 154.217 110.224C154.926 109.403 155.43 108.507 155.729 107.536C156.027 106.565 156.177 105.632 156.177 104.736C156.177 102.571 155.859 100.312 155.225 97.96C154.59 95.608 153.545 93.3867 152.089 91.296C150.633 89.168 148.71 87.2827 146.321 85.64C143.969 83.9973 141.075 82.784 137.641 82V106.92C137.641 107.629 137.529 108.208 137.305 108.656C137.118 109.067 136.857 109.403 136.521 109.664C136.222 109.888 135.867 110.056 135.457 110.168C135.046 110.243 134.635 110.28 134.225 110.28H132.601V81.272C132.078 81.2347 131.574 81.216 131.089 81.216C130.603 81.1787 130.099 81.16 129.577 81.16V80.04C129.577 78.6587 129.913 77.7627 130.585 77.352C131.294 76.904 132.078 76.68 132.937 76.68C136.558 76.68 140.067 77.3893 143.465 78.808C146.862 80.1893 149.867 82.1307 152.481 84.632C155.131 87.1333 157.241 90.1013 158.809 93.536C160.414 96.9707 161.217 100.704 161.217 104.736Z" fill="#0011FF" fill-opacity="0.9" shape-rendering="crispEdges"/>
<path d="M134.264 113.08H135.264V112.08H134.264V113.08ZM133.928 115.096L134.836 115.515L134.842 115.503L134.847 115.49L133.928 115.096ZM133.032 116.272L133.605 117.091L133.632 117.073L133.657 117.053L133.032 116.272ZM131.744 116.832L131.519 115.858L131.51 115.86L131.501 115.862L131.744 116.832ZM111.584 116.888L111.321 117.853L111.363 117.864L111.405 117.872L111.584 116.888ZM110.464 116.384L109.805 117.137L109.855 117.18L109.909 117.216L110.464 116.384ZM109.736 115.376L108.813 115.761L108.819 115.775L108.826 115.79L109.736 115.376ZM109.456 100.256H110.456V99.256H109.456V100.256ZM92.432 100.256V99.256H91.6656L91.4664 99.996L92.432 100.256ZM89.912 116.384L89.3687 115.544L89.357 115.552L89.3455 115.56L89.912 116.384ZM85.824 117H84.824V118H85.824V117ZM87.056 100.816L86.0814 100.592L86.0798 100.599L87.056 100.816ZM90.472 91.128L89.5873 90.6618L89.585 90.6663L90.472 91.128ZM95.512 84.24L94.8192 83.5189L94.8192 83.5189L95.512 84.24ZM101.56 79.816L101.094 78.9311L101.094 78.9311L101.56 79.816ZM108.056 77.408L107.844 76.4307L107.841 76.4314L108.056 77.408ZM116.96 77.632L116.098 78.139L116.098 78.139L116.96 77.632ZM117.52 81.16V82.16H118.52V81.16H117.52ZM114.496 81.16V80.16H113.496V81.16H114.496ZM114.496 113.08H113.496V114.08H114.496V113.08ZM109.456 81.72H110.456V80.4672L109.234 80.7449L109.456 81.72ZM100.44 86.368L101.087 87.1302L101.093 87.1251L100.44 86.368ZM93.832 96.056L92.9053 95.6803L92.3475 97.056H93.832V96.056ZM109.456 96.056V97.056H110.456V96.056H109.456ZM133.264 113.08C133.264 113.821 133.161 114.346 133.009 114.702L134.847 115.49C135.143 114.8 135.264 113.981 135.264 113.08H133.264ZM133.02 114.677C132.853 115.038 132.646 115.3 132.407 115.491L133.657 117.053C134.165 116.646 134.555 116.125 134.836 115.515L133.02 114.677ZM132.459 115.453C132.2 115.634 131.891 115.772 131.519 115.858L131.969 117.806C132.568 117.668 133.118 117.433 133.605 117.091L132.459 115.453ZM131.501 115.862C131.137 115.953 130.752 116 130.344 116V118C130.907 118 131.455 117.935 131.987 117.802L131.501 115.862ZM130.344 116H112.816V118H130.344V116ZM112.816 116C112.466 116 112.115 115.968 111.763 115.904L111.405 117.872C111.874 117.957 112.344 118 112.816 118V116ZM111.847 115.923C111.535 115.838 111.261 115.713 111.019 115.552L109.909 117.216C110.339 117.503 110.812 117.714 111.321 117.853L111.847 115.923ZM111.123 115.631C110.945 115.476 110.782 115.261 110.646 114.962L108.826 115.79C109.063 116.312 109.386 116.77 109.805 117.137L111.123 115.631ZM110.659 114.991C110.541 114.708 110.456 114.273 110.456 113.64H108.456C108.456 114.426 108.558 115.148 108.813 115.761L110.659 114.991ZM110.456 113.64V100.256H108.456V113.64H110.456ZM109.456 99.256H92.432V101.256H109.456V99.256ZM91.4664 99.996C90.9299 101.989 90.5294 104.108 90.263 106.354L92.249 106.59C92.5053 104.43 92.8887 102.406 93.3976 100.516L91.4664 99.996ZM90.263 106.354C89.9963 108.602 89.864 111.031 89.864 113.64H91.864C91.864 111.097 91.993 108.748 92.249 106.59L90.263 106.354ZM89.864 113.64C89.864 115.005 89.5417 115.432 89.3687 115.544L90.4553 117.224C91.5516 116.514 91.864 115.112 91.864 113.64H89.864ZM89.3455 115.56C88.9364 115.841 88.4309 116 87.784 116V118C88.7797 118 89.6929 117.748 90.4785 117.208L89.3455 115.56ZM87.784 116H85.824V118H87.784V116ZM86.824 117V113.64H84.824V117H86.824ZM86.824 113.64C86.824 108.84 87.2304 104.641 88.0322 101.033L86.0798 100.599C85.239 104.383 84.824 108.733 84.824 113.64H86.824ZM88.0306 101.04C88.8747 97.37 89.9877 94.2241 91.359 91.5897L89.585 90.6663C88.119 93.4826 86.9547 96.7953 86.0814 100.592L88.0306 101.04ZM91.3567 91.5942C92.7716 88.9094 94.3906 86.7042 96.2048 84.9611L94.8192 83.5189C92.8254 85.4345 91.0844 87.8213 89.5873 90.6618L91.3567 91.5942ZM96.2048 84.9611C98.0478 83.1904 99.9884 81.7732 102.026 80.7009L101.094 78.9311C98.8756 80.0988 96.7842 81.6309 94.8192 83.5189L96.2048 84.9611ZM102.026 80.7009C104.08 79.6198 106.161 78.8495 108.271 78.3846L107.841 76.4314C105.545 76.9372 103.296 77.7722 101.094 78.9311L102.026 80.7009ZM108.268 78.3853C110.446 77.9133 112.522 77.68 114.496 77.68V75.68C112.364 75.68 110.146 75.932 107.844 76.4307L108.268 78.3853ZM114.496 77.68C115.672 77.68 116.006 77.9825 116.098 78.139L117.822 77.125C117.167 76.0122 115.858 75.68 114.496 75.68V77.68ZM116.098 78.139C116.38 78.6178 116.52 79.133 116.52 79.704H118.52C118.52 78.7817 118.287 77.9156 117.822 77.125L116.098 78.139ZM116.52 79.704V81.16H118.52V79.704H116.52ZM117.52 80.16H114.496V82.16H117.52V80.16ZM113.496 81.16V113.08H115.496V81.16H113.496ZM114.496 114.08H134.264V112.08H114.496V114.08ZM109.234 80.7449C105.779 81.5303 102.627 83.1596 99.7867 85.6109L101.093 87.1251C103.704 84.8724 106.563 83.4031 109.678 82.6951L109.234 80.7449ZM99.7927 85.6058C96.9174 88.0478 94.631 91.4235 92.9053 95.6803L94.7587 96.4317C96.393 92.4005 98.512 89.3175 101.087 87.1302L99.7927 85.6058ZM93.832 97.056H109.456V95.056H93.832V97.056ZM110.456 96.056V81.72H108.456V96.056H110.456ZM160.321 109.328L159.392 108.957L159.392 108.957L160.321 109.328ZM156.905 113.08L156.39 112.223L153.294 114.08H156.905V113.08ZM174.209 113.08H175.209V112.08H174.209V113.08ZM173.873 115.096L174.781 115.515L174.786 115.503L174.792 115.49L173.873 115.096ZM172.977 116.272L173.55 117.091L173.576 117.073L173.601 117.053L172.977 116.272ZM171.689 116.832L171.464 115.858L171.455 115.86L171.446 115.862L171.689 116.832ZM130.809 116.888L130.546 117.853L130.587 117.864L130.63 117.872L130.809 116.888ZM129.689 116.384L129.03 117.137L129.079 117.18L129.134 117.216L129.689 116.384ZM128.961 115.376L128.038 115.761L128.044 115.775L128.05 115.79L128.961 115.376ZM128.681 113.08V112.08H127.681V113.08H128.681ZM151.417 112.296L151.828 113.207L151.84 113.202L151.852 113.196L151.417 112.296ZM154.217 110.224L154.973 110.878L154.217 110.224ZM155.729 107.536L154.773 107.242L154.773 107.242L155.729 107.536ZM155.225 97.96L154.259 98.2205L154.259 98.2205L155.225 97.96ZM152.089 91.296L151.263 91.8607L151.268 91.8675L152.089 91.296ZM146.321 85.64L145.748 86.4599L145.754 86.464L146.321 85.64ZM137.641 82L137.863 81.0251L136.641 80.746V82H137.641ZM137.305 108.656L136.41 108.209L136.402 108.225L136.394 108.242L137.305 108.656ZM136.521 109.664L137.121 110.464L137.128 110.459L137.135 110.453L136.521 109.664ZM135.457 110.168L135.636 111.152L135.678 111.144L135.72 111.133L135.457 110.168ZM132.601 110.28H131.601V111.28H132.601V110.28ZM132.601 81.272H133.601V80.3409L132.672 80.2745L132.601 81.272ZM131.089 81.216L131.012 82.2131L131.05 82.216H131.089V81.216ZM129.577 81.16H128.577V82.16H129.577V81.16ZM130.585 77.352L131.106 78.2053L131.112 78.2014L131.119 78.1975L130.585 77.352ZM143.465 78.808L143.079 79.7308L143.088 79.7344L143.465 78.808ZM152.481 84.632L151.789 85.3544L151.794 85.3593L152.481 84.632ZM158.809 93.536L157.899 93.9513L157.903 93.9594L158.809 93.536ZM160.217 104.736C160.217 106.173 159.943 107.578 159.392 108.957L161.249 109.699C161.892 108.091 162.217 106.435 162.217 104.736H160.217ZM159.392 108.957C158.892 110.206 157.925 111.302 156.39 112.223L157.419 113.937C159.245 112.842 160.554 111.437 161.249 109.699L159.392 108.957ZM156.905 114.08H174.209V112.08H156.905V114.08ZM173.209 113.08C173.209 113.821 173.106 114.346 172.953 114.702L174.792 115.49C175.087 114.8 175.209 113.981 175.209 113.08H173.209ZM172.965 114.677C172.798 115.038 172.59 115.3 172.352 115.491L173.601 117.053C174.11 116.646 174.499 116.125 174.781 115.515L172.965 114.677ZM172.403 115.453C172.144 115.634 171.836 115.772 171.464 115.858L171.913 117.806C172.512 117.668 173.062 117.433 173.55 117.091L172.403 115.453ZM171.446 115.862C171.081 115.953 170.696 116 170.289 116V118C170.852 118 171.4 117.935 171.931 117.802L171.446 115.862ZM170.289 116H132.041V118H170.289V116ZM132.041 116C131.691 116 131.34 115.968 130.988 115.904L130.63 117.872C131.098 117.957 131.569 118 132.041 118V116ZM131.072 115.923C130.759 115.838 130.485 115.713 130.243 115.552L129.134 117.216C129.564 117.503 130.037 117.714 130.546 117.853L131.072 115.923ZM130.347 115.631C130.169 115.476 130.007 115.261 129.871 114.962L128.05 115.79C128.288 116.312 128.611 116.77 129.03 117.137L130.347 115.631ZM129.884 114.991C129.766 114.708 129.681 114.273 129.681 113.64H127.681C127.681 114.426 127.782 115.148 128.038 115.761L129.884 114.991ZM129.681 113.64V113.08H127.681V113.64H129.681ZM128.681 114.08H147.105V112.08H128.681V114.08ZM147.105 114.08C148.917 114.08 150.504 113.805 151.828 113.207L151.005 111.385C150.014 111.832 148.727 112.08 147.105 112.08V114.08ZM151.852 113.196C153.11 112.588 154.16 111.819 154.973 110.878L153.46 109.57C152.855 110.271 152.038 110.884 150.981 111.396L151.852 113.196ZM154.973 110.878C155.767 109.959 156.342 108.942 156.684 107.83L154.773 107.242C154.518 108.071 154.085 108.847 153.46 109.57L154.973 110.878ZM156.684 107.83C157.009 106.777 157.177 105.744 157.177 104.736H155.177C155.177 105.52 155.046 106.354 154.773 107.242L156.684 107.83ZM157.177 104.736C157.177 102.473 156.845 100.126 156.19 97.6995L154.259 98.2205C154.874 100.498 155.177 102.669 155.177 104.736H157.177ZM156.19 97.6995C155.524 95.2312 154.428 92.9053 152.909 90.7245L151.268 91.8675C152.661 93.868 153.656 95.9848 154.259 98.2205L156.19 97.6995ZM152.914 90.7313C151.38 88.4898 149.365 86.5198 146.887 84.816L145.754 86.464C148.054 88.0456 149.885 89.8462 151.263 91.8607L152.914 90.7313ZM146.893 84.8202C144.415 83.089 141.396 81.8314 137.863 81.0251L137.418 82.9749C140.755 83.7366 143.523 84.9057 145.748 86.4598L146.893 84.8202ZM136.641 82V106.92H138.641V82H136.641ZM136.641 106.92C136.641 107.535 136.542 107.945 136.41 108.209L138.199 109.103C138.515 108.471 138.641 107.724 138.641 106.92H136.641ZM136.394 108.242C136.27 108.515 136.107 108.719 135.907 108.875L137.135 110.453C137.606 110.087 137.965 109.619 138.215 109.07L136.394 108.242ZM135.921 108.864C135.736 109.002 135.499 109.12 135.194 109.203L135.72 111.133C136.235 110.992 136.708 110.774 137.121 110.464L135.921 108.864ZM135.278 109.184C134.925 109.248 134.574 109.28 134.225 109.28V111.28C134.696 111.28 135.167 111.237 135.636 111.152L135.278 109.184ZM134.225 109.28H132.601V111.28H134.225V109.28ZM133.601 110.28V81.272H131.601V110.28H133.601ZM132.672 80.2745C132.127 80.2356 131.6 80.216 131.089 80.216V82.216C131.548 82.216 132.029 82.2337 132.529 82.2695L132.672 80.2745ZM131.165 80.2189C130.653 80.1795 130.123 80.16 129.577 80.16V82.16C130.076 82.16 130.554 82.1778 131.012 82.2131L131.165 80.2189ZM130.577 81.16V80.04H128.577V81.16H130.577ZM130.577 80.04C130.577 78.7435 130.902 78.3298 131.106 78.2053L130.063 76.4987C128.923 77.1956 128.577 78.5739 128.577 80.04H130.577ZM131.119 78.1975C131.664 77.8529 132.262 77.68 132.937 77.68V75.68C131.894 75.68 130.924 75.9551 130.051 76.5065L131.119 78.1975ZM132.937 77.68C136.423 77.68 139.802 78.3622 143.079 79.7308L143.85 77.8852C140.333 76.4165 136.692 75.68 132.937 75.68V77.68ZM143.088 79.7344C146.37 81.0688 149.268 82.9415 151.789 85.3544L153.172 83.9096C150.466 81.3198 147.354 79.3098 143.841 77.8816L143.088 79.7344ZM151.794 85.3593C154.348 87.7688 156.383 90.6298 157.899 93.9513L159.718 93.1207C158.099 89.5729 155.915 86.4978 153.167 83.9047L151.794 85.3593ZM157.903 93.9594C159.442 97.2532 160.217 100.841 160.217 104.736H162.217C162.217 100.567 161.386 96.6881 159.715 93.1126L157.903 93.9594Z" fill="#FF6464" fill-opacity="0.3"/>
</g>
</g>
<defs>
<filter id="filter0_d_1_4" x="81.824" y="74.68" width="96.3846" height="48.32" filterUnits="userSpaceOnUse" color-interpolation-filters="sRGB">
<feFlood flood-opacity="0" result="BackgroundImageFix"/>
<feColorMatrix in="SourceAlpha" type="matrix" values="0 0 0 0 0 0 0 0 0 0 0 0 0 0 0 0 0 0 127 0" result="hardAlpha"/>
<feOffset dy="2"/>
<feGaussianBlur stdDeviation="2"/>
<feComposite in2="hardAlpha" operator="out"/>
<feColorMatrix type="matrix" values="0 0 0 0 0 0 0 0 0 0 0 0 0 0 0 0 0 0 0.25 0"/>
<feBlend mode="normal" in2="BackgroundImageFix" result="effect1_dropShadow_1_4"/>
<feBlend mode="normal" in="SourceGraphic" in2="effect1_dropShadow_1_4" result="shape"/>
</filter>
<linearGradient id="paint0_linear_1_4" x1="101" y1="9" x2="101" y2="189" gradientUnits="userSpaceOnUse">
<stop stop-color="#2400FF"/>
<stop offset="1" stop-color="#2400FF" stop-opacity="0"/>
</linearGradient>
<linearGradient id="paint1_linear_1_4" x1="101" y1="28" x2="101" y2="170" gradientUnits="userSpaceOnUse">
<stop stop-color="#4B25CC"/>
<stop offset="1" stop-color="#4B25CC" stop-opacity="0"/>
</linearGradient>
<clipPath id="clip0_1_4">
<rect width="203" height="203" fill="white"/>
</clipPath>
</defs>
</svg>
