<svg width="168" height="180" viewBox="0 0 168 180" fill="none" xmlns="http://www.w3.org/2000/svg">
<path fill-rule="evenodd" clip-rule="evenodd" d="M155.988 151.202C139.551 168.915 116.07 180 90 180C40.2944 180 0 139.706 0 90C0 40.2944 40.2944 0 90 0C116.07 0 139.551 11.0846 155.988 28.7978C151.969 31.1675 148.204 33.9217 144.744 37.0099C130.701 22.5119 111.028 13.5 89.25 13.5C46.586 13.5 12 48.086 12 90.75C12 133.414 46.586 168 89.25 168C111.433 168 131.433 158.65 145.522 143.675C148.767 146.487 152.268 149.009 155.988 151.202Z" fill="url(#paint0_linear_0_1)"/>
<path fill-rule="evenodd" clip-rule="evenodd" d="M141 139.396C128.094 152.719 110.014 161 90 161C50.7878 161 19 129.212 19 90C19 50.7878 50.7878 19 90 19C110.014 19 128.094 27.281 141 40.6036C138.455 43.2302 136.112 46.0528 133.994 49.0466C122.87 37.1126 107.01 29.65 89.4083 29.65C55.7512 29.65 28.4667 56.9345 28.4667 90.5917C28.4667 124.249 55.7512 151.533 89.4083 151.533C107.263 151.533 123.325 143.855 134.471 131.619C136.462 134.366 138.645 136.965 141 139.396Z" fill="url(#paint1_linear_0_1)"/>
<g filter="url(#filter0_d_0_1)">
<path d="M123.264 104.08C123.264 104.901 123.152 105.573 122.928 106.096C122.704 106.581 122.405 106.973 122.032 107.272C121.659 107.533 121.229 107.72 120.744 107.832C120.296 107.944 119.829 108 119.344 108H101.816C101.405 108 100.995 107.963 100.584 107.888C100.173 107.776 99.8 107.608 99.464 107.384C99.1653 107.123 98.9227 106.787 98.736 106.376C98.5493 105.928 98.456 105.349 98.456 104.64V91.256H81.432C80.9093 93.1973 80.5173 95.2693 80.256 97.472C79.9947 99.6747 79.864 102.064 79.864 104.64C79.864 106.059 79.5467 106.973 78.912 107.384C78.3147 107.795 77.6053 108 76.784 108H74.824V104.64C74.824 99.7867 75.2347 95.512 76.056 91.816C76.9147 88.0827 78.0533 84.8533 79.472 82.128C80.928 79.3653 82.608 77.0693 84.512 75.24C86.416 73.4107 88.432 71.936 90.56 70.816C92.688 69.696 94.8533 68.8933 97.056 68.408C99.296 67.9227 101.443 67.68 103.496 67.68C104.765 67.68 105.587 67.9973 105.96 68.632C106.333 69.2667 106.52 69.9573 106.52 70.704V72.16H103.496V104.08H123.264ZM98.456 72.72C95.1707 73.4667 92.1653 75.016 89.44 77.368C86.7147 79.6827 84.512 82.912 82.832 87.056H98.456V72.72ZM150.217 95.736C150.217 97.304 149.918 98.8347 149.321 100.328C148.723 101.821 147.585 103.072 145.905 104.08H163.209C163.209 104.901 163.097 105.573 162.873 106.096C162.649 106.581 162.35 106.973 161.977 107.272C161.603 107.533 161.174 107.72 160.689 107.832C160.241 107.944 159.774 108 159.289 108H121.041C120.63 108 120.219 107.963 119.809 107.888C119.398 107.776 119.025 107.608 118.689 107.384C118.39 107.123 118.147 106.787 117.961 106.376C117.774 105.928 117.681 105.349 117.681 104.64V104.08H136.105C137.822 104.08 139.259 103.819 140.417 103.296C141.574 102.736 142.507 102.045 143.217 101.224C143.926 100.403 144.43 99.5067 144.729 98.536C145.027 97.5653 145.177 96.632 145.177 95.736C145.177 93.5707 144.859 91.312 144.225 88.96C143.59 86.608 142.545 84.3867 141.089 82.296C139.633 80.168 137.71 78.2827 135.321 76.64C132.969 74.9973 130.075 73.784 126.641 73V97.92C126.641 98.6293 126.529 99.208 126.305 99.656C126.118 100.067 125.857 100.403 125.521 100.664C125.222 100.888 124.867 101.056 124.457 101.168C124.046 101.243 123.635 101.28 123.225 101.28H121.601V72.272C121.078 72.2347 120.574 72.216 120.089 72.216C119.603 72.1787 119.099 72.16 118.577 72.16V71.04C118.577 69.6587 118.913 68.7627 119.585 68.352C120.294 67.904 121.078 67.68 121.937 67.68C125.558 67.68 129.067 68.3893 132.465 69.808C135.862 71.1893 138.867 73.1307 141.481 75.632C144.131 78.1333 146.241 81.1013 147.809 84.536C149.414 87.9707 150.217 91.704 150.217 95.736Z" fill="#0011FF" fill-opacity="0.9" shape-rendering="crispEdges"/>
<path d="M123.264 104.08H124.264V103.08H123.264V104.08ZM122.928 106.096L123.836 106.515L123.842 106.503L123.847 106.49L122.928 106.096ZM122.032 107.272L122.605 108.091L122.632 108.073L122.657 108.053L122.032 107.272ZM120.744 107.832L120.519 106.858L120.51 106.86L120.501 106.862L120.744 107.832ZM100.584 107.888L100.321 108.853L100.363 108.864L100.405 108.872L100.584 107.888ZM99.464 107.384L98.8055 108.137L98.8548 108.18L98.9093 108.216L99.464 107.384ZM98.736 106.376L97.8129 106.761L97.819 106.775L97.8256 106.79L98.736 106.376ZM98.456 91.256H99.456V90.256H98.456V91.256ZM81.432 91.256V90.256H80.6656L80.4664 90.996L81.432 91.256ZM78.912 107.384L78.3687 106.544L78.357 106.552L78.3455 106.56L78.912 107.384ZM74.824 108H73.824V109H74.824V108ZM76.056 91.816L75.0814 91.5918L75.0798 91.5991L76.056 91.816ZM79.472 82.128L78.5873 81.6618L78.585 81.6663L79.472 82.128ZM84.512 75.24L83.8192 74.5189L83.8192 74.5189L84.512 75.24ZM90.56 70.816L90.0943 69.9311L90.0943 69.9311L90.56 70.816ZM97.056 68.408L96.8442 67.4307L96.8408 67.4314L97.056 68.408ZM105.96 68.632L105.098 69.139L105.098 69.139L105.96 68.632ZM106.52 72.16V73.16H107.52V72.16H106.52ZM103.496 72.16V71.16H102.496V72.16H103.496ZM103.496 104.08H102.496V105.08H103.496V104.08ZM98.456 72.72H99.456V71.4672L98.2344 71.7449L98.456 72.72ZM89.44 77.368L90.0874 78.1302L90.0934 78.1251L89.44 77.368ZM82.832 87.056L81.9053 86.6803L81.3475 88.056H82.832V87.056ZM98.456 87.056V88.056H99.456V87.056H98.456ZM122.264 104.08C122.264 104.821 122.161 105.346 122.009 105.702L123.847 106.49C124.143 105.8 124.264 104.981 124.264 104.08H122.264ZM122.02 105.677C121.853 106.038 121.646 106.3 121.407 106.491L122.657 108.053C123.165 107.646 123.555 107.125 123.836 106.515L122.02 105.677ZM121.459 106.453C121.2 106.634 120.891 106.772 120.519 106.858L120.969 108.806C121.568 108.668 122.118 108.433 122.605 108.091L121.459 106.453ZM120.501 106.862C120.137 106.953 119.752 107 119.344 107V109C119.907 109 120.455 108.935 120.987 108.802L120.501 106.862ZM119.344 107H101.816V109H119.344V107ZM101.816 107C101.466 107 101.115 106.968 100.763 106.904L100.405 108.872C100.874 108.957 101.344 109 101.816 109V107ZM100.847 106.923C100.535 106.838 100.261 106.713 100.019 106.552L98.9093 108.216C99.3395 108.503 99.8122 108.714 100.321 108.853L100.847 106.923ZM100.123 106.631C99.9447 106.476 99.7822 106.261 99.6464 105.962L97.8256 106.79C98.0631 107.312 98.386 107.77 98.8055 108.137L100.123 106.631ZM99.6591 105.991C99.541 105.708 99.456 105.273 99.456 104.64H97.456C97.456 105.426 97.5577 106.148 97.8129 106.761L99.6591 105.991ZM99.456 104.64V91.256H97.456V104.64H99.456ZM98.456 90.256H81.432V92.256H98.456V90.256ZM80.4664 90.996C79.9299 92.9885 79.5294 95.1084 79.263 97.3542L81.249 97.5898C81.5053 95.4303 81.8887 93.4062 82.3976 91.516L80.4664 90.996ZM79.263 97.3542C78.9963 99.6016 78.864 102.031 78.864 104.64H80.864C80.864 102.097 80.993 99.7477 81.249 97.5898L79.263 97.3542ZM78.864 104.64C78.864 106.005 78.5417 106.432 78.3687 106.544L79.4553 108.224C80.5516 107.514 80.864 106.112 80.864 104.64H78.864ZM78.3455 106.56C77.9364 106.841 77.4309 107 76.784 107V109C77.7797 109 78.6929 108.748 79.4785 108.208L78.3455 106.56ZM76.784 107H74.824V109H76.784V107ZM75.824 108V104.64H73.824V108H75.824ZM75.824 104.64C75.824 99.8403 76.2304 95.641 77.0322 92.0329L75.0798 91.5991C74.239 95.383 73.824 99.733 73.824 104.64H75.824ZM77.0306 92.0401C77.8747 88.37 78.9877 85.2241 80.359 82.5897L78.585 81.6663C77.119 84.4826 75.9547 87.7953 75.0814 91.5919L77.0306 92.0401ZM80.3567 82.5942C81.7716 79.9094 83.3906 77.7042 85.2048 75.9611L83.8192 74.5189C81.8254 76.4345 80.0844 78.8213 78.5873 81.6618L80.3567 82.5942ZM85.2048 75.9611C87.0478 74.1904 88.9884 72.7732 91.0257 71.7009L90.0943 69.9311C87.8756 71.0988 85.7842 72.6309 83.8192 74.5189L85.2048 75.9611ZM91.0257 71.7009C93.0799 70.6198 95.1613 69.8495 97.2712 69.3846L96.8408 67.4314C94.5453 67.9372 92.2961 68.7722 90.0943 69.9311L91.0257 71.7009ZM97.2678 69.3853C99.4461 68.9133 101.522 68.68 103.496 68.68V66.68C101.364 66.68 99.1459 66.932 96.8442 67.4307L97.2678 69.3853ZM103.496 68.68C104.672 68.68 105.006 68.9825 105.098 69.139L106.822 68.125C106.167 67.0122 104.858 66.68 103.496 66.68V68.68ZM105.098 69.139C105.38 69.6178 105.52 70.133 105.52 70.704H107.52C107.52 69.7817 107.287 68.9156 106.822 68.125L105.098 69.139ZM105.52 70.704V72.16H107.52V70.704H105.52ZM106.52 71.16H103.496V73.16H106.52V71.16ZM102.496 72.16V104.08H104.496V72.16H102.496ZM103.496 105.08H123.264V103.08H103.496V105.08ZM98.2344 71.7449C94.7786 72.5303 91.6272 74.1596 88.7867 76.6109L90.0934 78.1251C92.7035 75.8724 95.5628 74.4031 98.6776 73.6951L98.2344 71.7449ZM88.7927 76.6058C85.9174 79.0478 83.631 82.4235 81.9053 86.6803L83.7587 87.4317C85.393 83.4005 87.512 80.3175 90.0873 78.1302L88.7927 76.6058ZM82.832 88.056H98.456V86.056H82.832V88.056ZM99.456 87.056V72.72H97.456V87.056H99.456ZM149.321 100.328L148.392 99.9566L148.392 99.9566L149.321 100.328ZM145.905 104.08L145.39 103.223L142.294 105.08H145.905V104.08ZM163.209 104.08H164.209V103.08H163.209V104.08ZM162.873 106.096L163.781 106.515L163.786 106.503L163.792 106.49L162.873 106.096ZM161.977 107.272L162.55 108.091L162.576 108.073L162.601 108.053L161.977 107.272ZM160.689 107.832L160.464 106.858L160.455 106.86L160.446 106.862L160.689 107.832ZM119.809 107.888L119.546 108.853L119.587 108.864L119.63 108.872L119.809 107.888ZM118.689 107.384L118.03 108.137L118.079 108.18L118.134 108.216L118.689 107.384ZM117.961 106.376L117.038 106.761L117.044 106.775L117.05 106.79L117.961 106.376ZM117.681 104.08V103.08H116.681V104.08H117.681ZM140.417 103.296L140.828 104.207L140.84 104.202L140.852 104.196L140.417 103.296ZM143.217 101.224L143.973 101.878L143.217 101.224ZM144.729 98.536L143.773 98.2419L143.773 98.2419L144.729 98.536ZM144.225 88.96L143.259 89.2205L143.259 89.2205L144.225 88.96ZM141.089 82.296L140.263 82.8607L140.268 82.8675L141.089 82.296ZM135.321 76.64L134.748 77.4599L134.754 77.464L135.321 76.64ZM126.641 73L126.863 72.0251L125.641 71.746V73H126.641ZM126.305 99.656L125.41 99.2088L125.402 99.2253L125.394 99.2422L126.305 99.656ZM125.521 100.664L126.121 101.464L126.128 101.459L126.135 101.453L125.521 100.664ZM124.457 101.168L124.636 102.152L124.678 102.144L124.72 102.133L124.457 101.168ZM121.601 101.28H120.601V102.28H121.601V101.28ZM121.601 72.272H122.601V71.3409L121.672 71.2745L121.601 72.272ZM120.089 72.216L120.012 73.2131L120.05 73.216H120.089V72.216ZM118.577 72.16H117.577V73.16H118.577V72.16ZM119.585 68.352L120.106 69.2053L120.112 69.2014L120.119 69.1975L119.585 68.352ZM132.465 69.808L132.079 70.7308L132.088 70.7344L132.465 69.808ZM141.481 75.632L140.789 76.3544L140.794 76.3593L141.481 75.632ZM147.809 84.536L146.899 84.9513L146.903 84.9594L147.809 84.536ZM149.217 95.736C149.217 97.1735 148.943 98.5783 148.392 99.9566L150.249 100.699C150.892 99.091 151.217 97.4345 151.217 95.736H149.217ZM148.392 99.9566C147.892 101.206 146.925 102.302 145.39 103.223L146.419 104.937C148.245 103.842 149.554 102.437 150.249 100.699L148.392 99.9566ZM145.905 105.08H163.209V103.08H145.905V105.08ZM162.209 104.08C162.209 104.821 162.106 105.346 161.953 105.702L163.792 106.49C164.087 105.8 164.209 104.981 164.209 104.08H162.209ZM161.965 105.677C161.798 106.038 161.59 106.3 161.352 106.491L162.601 108.053C163.11 107.646 163.499 107.125 163.781 106.515L161.965 105.677ZM161.403 106.453C161.144 106.634 160.836 106.772 160.464 106.858L160.913 108.806C161.512 108.668 162.062 108.433 162.55 108.091L161.403 106.453ZM160.446 106.862C160.081 106.953 159.696 107 159.289 107V109C159.852 109 160.4 108.935 160.931 108.802L160.446 106.862ZM159.289 107H121.041V109H159.289V107ZM121.041 107C120.691 107 120.34 106.968 119.988 106.904L119.63 108.872C120.098 108.957 120.569 109 121.041 109V107ZM120.072 106.923C119.759 106.838 119.485 106.713 119.243 106.552L118.134 108.216C118.564 108.503 119.037 108.714 119.546 108.853L120.072 106.923ZM119.347 106.631C119.169 106.476 119.007 106.261 118.871 105.962L117.05 106.79C117.288 107.312 117.611 107.77 118.03 108.137L119.347 106.631ZM118.884 105.991C118.766 105.708 118.681 105.273 118.681 104.64H116.681C116.681 105.426 116.782 106.148 117.038 106.761L118.884 105.991ZM118.681 104.64V104.08H116.681V104.64H118.681ZM117.681 105.08H136.105V103.08H117.681V105.08ZM136.105 105.08C137.917 105.08 139.504 104.805 140.828 104.207L140.005 102.385C139.014 102.832 137.727 103.08 136.105 103.08V105.08ZM140.852 104.196C142.11 103.588 143.16 102.819 143.973 101.878L142.46 100.57C141.855 101.271 141.038 101.884 139.981 102.396L140.852 104.196ZM143.973 101.878C144.767 100.959 145.342 99.942 145.684 98.8301L143.773 98.2419C143.518 99.0713 143.085 99.8465 142.46 100.57L143.973 101.878ZM145.684 98.8301C146.009 97.7766 146.177 96.744 146.177 95.736H144.177C144.177 96.52 144.046 97.354 143.773 98.2419L145.684 98.8301ZM146.177 95.736C146.177 93.4725 145.845 91.126 145.19 88.6995L143.259 89.2205C143.874 91.498 144.177 93.6688 144.177 95.736H146.177ZM145.19 88.6995C144.524 86.2312 143.428 83.9053 141.909 81.7245L140.268 82.8675C141.661 84.868 142.656 86.9848 143.259 89.2205L145.19 88.6995ZM141.914 81.7313C140.38 79.4898 138.365 77.5198 135.887 75.816L134.754 77.464C137.054 79.0456 138.885 80.8462 140.263 82.8607L141.914 81.7313ZM135.893 75.8202C133.415 74.089 130.396 72.8314 126.863 72.0251L126.418 73.9749C129.755 74.7366 132.523 75.9057 134.748 77.4598L135.893 75.8202ZM125.641 73V97.92H127.641V73H125.641ZM125.641 97.92C125.641 98.5345 125.542 98.9451 125.41 99.2088L127.199 100.103C127.515 99.4709 127.641 98.7241 127.641 97.92H125.641ZM125.394 99.2422C125.27 99.5146 125.107 99.7186 124.907 99.8746L126.135 101.453C126.606 101.087 126.965 100.619 127.215 100.07L125.394 99.2422ZM124.921 99.864C124.736 100.002 124.499 100.12 124.194 100.203L124.72 102.133C125.235 101.992 125.708 101.774 126.121 101.464L124.921 99.864ZM124.278 100.184C123.925 100.248 123.574 100.28 123.225 100.28V102.28C123.696 102.28 124.167 102.237 124.636 102.152L124.278 100.184ZM123.225 100.28H121.601V102.28H123.225V100.28ZM122.601 101.28V72.272H120.601V101.28H122.601ZM121.672 71.2745C121.127 71.2356 120.6 71.216 120.089 71.216V73.216C120.548 73.216 121.029 73.2337 121.529 73.2695L121.672 71.2745ZM120.165 71.2189C119.653 71.1795 119.123 71.16 118.577 71.16V73.16C119.076 73.16 119.554 73.1778 120.012 73.2131L120.165 71.2189ZM119.577 72.16V71.04H117.577V72.16H119.577ZM119.577 71.04C119.577 69.7435 119.902 69.3298 120.106 69.2053L119.063 67.4987C117.923 68.1956 117.577 69.5739 117.577 71.04H119.577ZM120.119 69.1975C120.664 68.8529 121.262 68.68 121.937 68.68V66.68C120.894 66.68 119.924 66.9551 119.051 67.5065L120.119 69.1975ZM121.937 68.68C125.423 68.68 128.802 69.3622 132.079 70.7308L132.85 68.8852C129.333 67.4165 125.692 66.68 121.937 66.68V68.68ZM132.088 70.7344C135.37 72.0688 138.268 73.9415 140.789 76.3544L142.172 74.9096C139.466 72.3198 136.354 70.3098 132.841 68.8816L132.088 70.7344ZM140.794 76.3593C143.348 78.7688 145.383 81.6298 146.899 84.9513L148.718 84.1207C147.099 80.5729 144.915 77.4978 142.167 74.9047L140.794 76.3593ZM146.903 84.9594C148.442 88.2532 149.217 91.8408 149.217 95.736H151.217C151.217 91.5672 150.386 87.6881 148.715 84.1126L146.903 84.9594Z" fill="#FF6464" fill-opacity="0.3"/>
</g>
<defs>
<filter id="filter0_d_0_1" x="70.824" y="65.68" width="96.3846" height="48.32" filterUnits="userSpaceOnUse" color-interpolation-filters="sRGB">
<feFlood flood-opacity="0" result="BackgroundImageFix"/>
<feColorMatrix in="SourceAlpha" type="matrix" values="0 0 0 0 0 0 0 0 0 0 0 0 0 0 0 0 0 0 127 0" result="hardAlpha"/>
<feOffset dy="2"/>
<feGaussianBlur stdDeviation="2"/>
<feComposite in2="hardAlpha" operator="out"/>
<feColorMatrix type="matrix" values="0 0 0 0 0 0 0 0 0 0 0 0 0 0 0 0 0 0 0.25 0"/>
<feBlend mode="normal" in2="BackgroundImageFix" result="effect1_dropShadow_0_1"/>
<feBlend mode="normal" in="SourceGraphic" in2="effect1_dropShadow_0_1" result="shape"/>
</filter>
<linearGradient id="paint0_linear_0_1" x1="0" y1="90" x2="155.988" y2="90" gradientUnits="userSpaceOnUse">
<stop stop-color="#2400FF"/>
<stop offset="1" stop-color="#2400FF" stop-opacity="0"/>
</linearGradient>
<linearGradient id="paint1_linear_0_1" x1="19" y1="90" x2="141" y2="90" gradientUnits="userSpaceOnUse">
<stop stop-color="#4B25CC"/>
<stop offset="1" stop-color="#4B25CC" stop-opacity="0"/>
</linearGradient>
</defs>
</svg>
